<svg xmlns="http://www.w3.org/2000/svg" viewBox="0 0 40 66">
  <path fill="#D50C2F" fill-rule="evenodd" d="M16.258 36.716h-9.27c-3.91 0-6.287-2.317-6.88-5.89C-.002 30.17 0 29.73 0 29.73c0-.256.228-.485.487-.485h15.08L.14 13.835c-1.155-1.153 5.77-5.365 10.455-.688l6.496 6.496c.664.66 1.71.704 2.422.128l-.004-2.417c-1.858-.26-3.25-1.992-3.25-3.86 0-.26.228-.488.488-.488h5.973c-.23-1.294-1.36-2.276-2.72-2.276h-3.254c-2.065 0-3.74-1.672-3.74-3.734 0-.262.23-.49.488-.49h6.048c.24-1.832 1.813-3.246 3.712-3.246h2.72V.547c0-.538.442-.726.83-.35l3.153 3.067c3.764.103 6.812 3.16 6.812 6.953l-.02 3.077c2.693 2.843 2.69 7.298 0 10.14-.01 8.408-.003 19.693-.003 22.08 1.837.24 3.253 1.805 3.253 3.708v9.74c0 .053-.106.31-.144.348l-6.502 6.495c-.036.035-.296.143-.346.143H23.25c-.26 0-.487-.23-.487-.49 0-3.635 2.988-6.696 6.564-6.96-.253-3.047-2.96-5.546-6.077-5.546-1.527 0-2.764 1.238-2.764 2.762l.004 3.25c0 .05-.108.31-.145.346l-6.583 6.548c-.036.032-.296.142-.345.142H3.64c-.26 0-.487-.227-.487-.487 0-3.648 3.086-6.755 6.675-7.02l-.076-6.022c0-3.693 2.886-6.72 6.52-6.97l-.014-8.784z"/>
</svg>
