<svg xmlns="http://www.w3.org/2000/svg" viewBox="0 0 247 65">
  <g fill="none" fill-rule="evenodd">
    <path fill="#6B6F73" d="M16.13 2.576c-1.786.152-1.96.26-1.96 2.06v8.766c0 1.822.174 1.93 1.937 2.06v.607h-5.834v-.607c1.85-.13 2.044-.24 2.044-2.06v-4.34H4.895v4.34c0 1.8.175 1.93 1.96 2.06v.606H1.128v-.607c1.742-.13 1.917-.24 1.917-2.06V4.636c0-1.822-.175-1.91-1.96-2.06v-.61h5.638v.61c-1.653.15-1.828.258-1.828 2.06V8.15h7.422V4.637c0-1.802-.173-1.91-1.87-2.06v-.61h5.682v.61zM22.307 7.045c-1.328 0-2.504 1.344-2.504 3.796 0 2.736 1.198 4.775 2.983 4.775 1.35 0 2.46-.998 2.46-3.97 0-2.54-1.024-4.6-2.917-4.6h-.023zm.26-.715c2.68 0 4.704 2.147 4.704 4.838 0 3.493-2.57 5.162-4.723 5.162-2.983 0-4.77-2.386-4.77-4.794 0-3.58 2.79-5.206 4.77-5.206h.02zM37 14.118c-.958 1.257-2.416 2.212-3.702 2.212-2.742 0-4.354-2.212-4.354-4.533 0-1.67.72-3.125 2.178-4.253 1.13-.868 2.436-1.214 3.265-1.214h.022c.87 0 1.59.28 1.936.564.283.238.348.434.348.67 0 .457-.48.934-.717.934-.11 0-.22-.065-.414-.238-.653-.608-1.416-.89-2.178-.89-1.436 0-2.698 1.193-2.698 3.473 0 3.014 2.067 4.014 3.287 4.014.936 0 1.653-.262 2.655-1.195l.37.456zM43.942 16.07v-.564c1.263-.13 1.436-.262 1.436-1.67v-3.602c0-1.78-.675-2.67-2.134-2.67-.827 0-1.653.415-2.263 1.108v5.164c0 1.39.11 1.54 1.394 1.67v.564H37.76l.02-.564c1.307-.11 1.482-.238 1.482-1.67V3.488c0-1.367-.044-1.478-1.483-1.606v-.5c1.045-.152 2.352-.498 3.2-.76v7.29c.764-.78 1.938-1.583 3.115-1.583 1.762-.023 3.004 1.106 3.004 3.708v3.798c0 1.432.152 1.56 1.436 1.67v.564h-4.594zM55.434 9.15C55.02 7.87 54.257 7 53.192 7c-.828 0-1.417.65-1.417 1.495 0 .957.873 1.478 1.85 1.89 1.634.67 2.745 1.453 2.745 2.95 0 1.974-1.85 2.992-3.593 2.992-1.11 0-2.11-.413-2.504-.737-.15-.303-.348-1.78-.348-2.56l.567-.108c.39 1.43 1.37 2.69 2.676 2.69.807 0 1.546-.61 1.546-1.52 0-.954-.632-1.475-1.718-1.974-1.308-.607-2.723-1.322-2.723-2.993 0-1.52 1.308-2.798 3.31-2.798.893-.023 1.48.195 1.938.367.174.5.415 1.78.48 2.323l-.566.13zM65.946 14.118c-.958 1.257-2.416 2.212-3.7 2.212-2.744 0-4.354-2.212-4.354-4.533 0-1.67.717-3.125 2.176-4.253 1.133-.868 2.438-1.214 3.265-1.214h.022c.872 0 1.59.28 1.937.564.285.238.35.434.35.67 0 .457-.48.934-.72.934-.107 0-.216-.065-.413-.238-.654-.608-1.415-.89-2.177-.89-1.438 0-2.7 1.193-2.7 3.473 0 3.014 2.07 4.014 3.287 4.014.936 0 1.655-.262 2.657-1.195l.37.456zM72.89 16.07v-.564c1.263-.13 1.436-.262 1.436-1.67v-3.602c0-1.78-.675-2.67-2.134-2.67-.827 0-1.653.415-2.263 1.108v5.164c0 1.39.108 1.54 1.392 1.67v.564h-4.615l.02-.564c1.308-.11 1.483-.238 1.483-1.67V3.488c0-1.367-.044-1.478-1.483-1.606v-.5c1.046-.152 2.353-.498 3.202-.76v7.29c.762-.78 1.936-1.583 3.113-1.583 1.762-.023 3.004 1.106 3.004 3.708v3.798c0 1.432.15 1.56 1.435 1.67v.564H72.89zM89.26 15.55c-.48.065-1.09.194-1.68.346-.565.153-1.107.325-1.52.434l-.134-.13v-1.54c-.5.37-1 .76-1.61 1.128-.63.37-1.09.542-1.677.542-1.457 0-2.7-.89-2.7-3.232V8.845c0-1.15-.174-1.258-.72-1.388l-.607-.13V6.83c.455-.025.98-.088 1.568-.154.59-.087 1.174-.174 1.545-.24-.065.674-.065 1.694-.065 3.17v2.928c0 1.91.936 2.43 1.917 2.43.783 0 1.61-.325 2.35-1.042V8.867c0-1.17-.196-1.302-.915-1.41l-.783-.13V6.83c.587-.025 1.328-.088 1.958-.175.61-.066 1.13-.153 1.46-.218v7.247c0 1.084.172 1.236 1 1.28l.61.043v.543zM89.907 16.07v-.564c1.37-.13 1.568-.262 1.568-1.693V3.553c0-1.475-.13-1.543-1.503-1.65v-.52c1.13-.13 2.482-.5 3.222-.76v13.19c0 1.43.174 1.562 1.567 1.693v.564h-4.853zM100.03 7.132c-.98 0-1.94.91-2.267 2.67 1.223 0 2.42-.025 3.68-.068.392 0 .525-.13.525-.432.02-1.13-.72-2.17-1.917-2.17h-.02zm3.7 7.095c-1.37 1.713-2.872 2.103-3.548 2.103-2.68 0-4.247-2.168-4.247-4.62 0-1.497.547-2.822 1.44-3.796.89-1 2.066-1.584 3.176-1.584h.023c1.81 0 3.265 1.604 3.265 3.297 0 .434-.11.606-.5.693-.37.065-3.093.283-5.682.37.022 2.95 1.72 4.165 3.243 4.165.872 0 1.698-.347 2.483-1.083l.346.455zM111.61 6.59V6.11c0-.673.086-1.3.24-1.78.15-.475.5-1.54 1.674-2.537.763-.673 1.546-1.063 2.395-1.172.74.022 1.37.325 1.72.737.196.24.218.522.11.76-.067.174-.198.347-.414.52-.197.153-.392.153-.59-.065-.436-.39-1.044-.802-1.763-.802-.567 0-.914.26-1.155.65-.28.412-.522 1.453-.5 3.3v.866h2.57c.132.195.02.714-.218.845h-2.353v6.25c0 1.604.153 1.67 1.874 1.843v.543h-5.135v-.563c1.393-.13 1.544-.24 1.544-1.672v-6.4h-1.526l-.087-.216.588-.63h1.024z"/>
    <path fill="#6B6F73" d="M122.32 3.357c0-.608.456-1.085 1.042-1.085.568 0 1.023.477 1.023 1.085 0 .543-.455 1.042-1.043 1.042-.566 0-1.023-.5-1.023-1.043zm-3.682 0c0-.608.48-1.085 1.068-1.085.566 0 1 .477 1 1.085 0 .543-.434 1.042-1.022 1.042-.567 0-1.046-.5-1.046-1.043zm8.533 12.192c-.476.065-1.086.194-1.674.346-.564.153-1.11.327-1.524.434l-.13-.13v-1.54c-.5.37-1 .76-1.61 1.127-.633.37-1.09.543-1.678.543-1.46 0-2.7-.89-2.7-3.232V8.844c0-1.148-.173-1.257-.718-1.388l-.61-.13V6.83c.46-.02.98-.087 1.568-.152.588-.087 1.176-.174 1.546-.238-.066.672-.066 1.69-.066 3.167v2.93c0 1.908.936 2.428 1.916 2.428.785 0 1.612-.324 2.353-1.04V8.867c0-1.172-.197-1.303-.914-1.412l-.786-.13V6.83c.588-.02 1.327-.087 1.957-.174.613-.065 1.136-.152 1.462-.216v7.246c0 1.085.175 1.236 1 1.28l.61.043v.542zM131.48 8.63c.654-1.086 1.59-2.3 2.635-2.3.74 0 1.262.564 1.262 1.083 0 .433-.283.87-.696 1.063-.26.11-.456.087-.587-.043-.306-.325-.564-.456-.914-.456-.568 0-1.265.652-1.742 1.866v3.97c0 1.432.107 1.562 1.785 1.693v.564h-5.008v-.564c1.35-.13 1.502-.26 1.502-1.693v-4.49c0-1.433-.11-1.52-1.35-1.692v-.477c1.066-.174 2.024-.433 3.07-.89V8.63h.043zM21.07 26.627c-1.502.196-1.697.368-2.35 2.17-.5 1.388-1.807 5.487-3.593 11.563h-.676c-1.195-3.493-2.697-7.682-3.806-10.826h-.046C9.38 33.352 8.162 36.844 7.05 40.36h-.675c-1.152-3.925-2.372-7.745-3.57-11.607-.545-1.78-.87-1.954-2.2-2.126v-.608h5.29v.607c-1.588.196-1.63.368-1.304 1.475.85 2.93 1.698 5.858 2.656 8.94h.043c1.154-3.69 2.416-7.27 3.527-10.805h.632c1.217 3.558 2.48 7.073 3.808 10.824h.044c.914-2.904 2.112-7.158 2.46-8.697.304-1.303.216-1.54-1.502-1.736v-.608h4.81v.607zM22.524 27.386c0-.652.523-1.13 1.11-1.13.61 0 1.088.478 1.088 1.13 0 .586-.477 1.107-1.11 1.107-.565 0-1.088-.52-1.088-1.107zM21.37 40.12v-.562c1.373-.13 1.524-.26 1.524-1.734V33.33c0-1.322-.066-1.43-1.37-1.627v-.52c1.11-.173 2.133-.455 3.09-.847v7.488c0 1.473.152 1.604 1.547 1.734v.563h-4.79zM30.534 32.68c.654-1.084 1.59-2.3 2.635-2.3.738 0 1.26.564 1.26 1.085 0 .434-.28.867-.697 1.063-.26.11-.457.088-.586-.043-.306-.327-.566-.456-.916-.456-.563 0-1.26.65-1.74 1.863v3.972c0 1.432.11 1.563 1.785 1.693v.563h-5.008v-.562c1.35-.13 1.504-.26 1.504-1.693v-4.49c0-1.433-.108-1.52-1.35-1.692v-.48c1.067-.172 2.025-.433 3.07-.89v2.366h.044zM39.676 40.1c-.372.195-.72.282-.914.282-1.37 0-2.134-.87-2.134-2.582v-6.313h-1.503l-.087-.216.588-.63h1.002v-1.583l1.415-1.432.306.044v2.97h2.457c.196.217.13.694-.13.847H38.35v5.574c0 1.76.716 2.086 1.26 2.086.545 0 1.046-.218 1.35-.37l.196.562-1.48.763zM47.75 33.2c-.414-1.278-1.175-2.147-2.24-2.147-.83 0-1.417.65-1.417 1.497 0 .954.872 1.475 1.85 1.887 1.633.673 2.744 1.453 2.744 2.95 0 1.975-1.85 2.994-3.593 2.994-1.11 0-2.11-.41-2.504-.735-.15-.305-.348-1.78-.348-2.56l.567-.11c.39 1.432 1.37 2.692 2.676 2.692.806 0 1.546-.608 1.546-1.52 0-.954-.632-1.477-1.72-1.976-1.307-.606-2.722-1.32-2.722-2.993 0-1.517 1.308-2.796 3.31-2.796.893-.023 1.48.195 1.938.37.173.5.414 1.778.48 2.32l-.567.13zM58.263 38.17c-.957 1.26-2.416 2.21-3.7 2.21-2.744 0-4.354-2.21-4.354-4.534 0-1.67.717-3.123 2.175-4.25 1.133-.87 2.44-1.215 3.267-1.215h.02c.872 0 1.59.282 1.938.565.284.238.35.434.35.67 0 .457-.48.934-.72.934-.107 0-.217-.066-.413-.238-.654-.608-1.415-.89-2.176-.89-1.438 0-2.7 1.193-2.7 3.472 0 3.014 2.07 4.012 3.29 4.012.933 0 1.652-.26 2.654-1.192l.37.455zM65.206 40.12v-.562c1.262-.13 1.436-.26 1.436-1.67v-3.604c0-1.778-.675-2.667-2.134-2.667-.826 0-1.653.412-2.263 1.107v5.163c0 1.388.11 1.54 1.393 1.67v.563h-4.614l.02-.562c1.307-.11 1.48-.238 1.48-1.67v-10.35c0-1.367-.042-1.476-1.48-1.606v-.5c1.045-.15 2.352-.496 3.2-.758v7.29c.764-.78 1.938-1.583 3.115-1.583 1.76-.022 3.003 1.106 3.003 3.71v3.797c0 1.433.15 1.56 1.435 1.67v.563h-4.592zM76.284 34.914c-.457.24-1.503.695-1.96.91-.848.39-1.327.803-1.327 1.586 0 1.128.87 1.67 1.544 1.67.57-.02 1.33-.39 1.744-.78v-3.386zm1.59 5.468c-.326 0-.786-.196-1.024-.412-.282-.305-.413-.608-.523-.976-.87.586-1.915 1.388-2.57 1.388-1.545 0-2.61-1.28-2.61-2.648 0-1.063.564-1.734 1.762-2.146 1.305-.434 2.895-1.022 3.374-1.412v-.39c0-1.56-.742-2.452-1.83-2.452-.434 0-.762.174-.978.436-.284.28-.48.758-.654 1.408-.087.37-.326.523-.632.523-.39 0-.958-.433-.958-.932 0-.327.284-.567.698-.87.61-.433 2.025-1.28 3.265-1.516.653 0 1.307.194 1.786.584.762.63.98 1.52.98 2.647v4.036c0 .973.392 1.298.762 1.298.262 0 .566-.11.785-.235l.216.562-1.85 1.107zM90.955 40.12c-.372.198-.698.262-.893.262-1.373 0-2.132-.87-2.132-2.583v-6.292h-4.117v6.335c0 1.41.153 1.584 1.613 1.715v.562H80.57v-.562c1.373-.153 1.524-.327 1.524-1.693v-6.357H80.57l-.108-.237.565-.63h1.067V30.1c0-.673.087-1.216.216-1.67.155-.5.525-1.63 1.743-2.603.827-.673 1.59-1.042 2.395-1.15.785.02 1.327.324 1.633.65.218.238.263.522.154.78-.11.195-.284.413-.522.565-.175.11-.328.11-.523-.087-.395-.39-1.09-.758-1.678-.758-.5 0-.893.216-1.175.65-.304.455-.546 1.43-.524 3.6v.566h4.117v-1.474l1.393-1.454.304.044v2.885h2.482c.172.195.128.694-.154.868h-2.33v5.553c0 1.76.72 2.108 1.285 2.108.567 0 1.046-.22 1.35-.37l.197.586-1.502.736zM108.866 39.602c-.478.063-1.09.194-1.677.345-.565.154-1.11.326-1.523.433l-.13-.128v-1.54c-.502.367-1.003.76-1.61 1.126-.635.372-1.09.542-1.678.542-1.46 0-2.7-.89-2.7-3.23v-4.255c0-1.15-.174-1.256-.72-1.386l-.61-.132v-.5c.458-.02.98-.086 1.57-.15.585-.087 1.173-.174 1.545-.24-.066.672-.066 1.692-.066 3.17v2.928c0 1.907.935 2.428 1.915 2.428.783 0 1.61-.325 2.35-1.04V32.92c0-1.174-.194-1.304-.913-1.41l-.783-.132v-.5c.587-.02 1.326-.086 1.956-.173.612-.064 1.133-.15 1.46-.216v7.245c0 1.085.174 1.237 1 1.28l.61.044v.542zM116.05 40.12v-.562c1.282-.13 1.435-.305 1.435-1.8v-3.624c0-1.497-.522-2.475-1.983-2.475-.868 0-1.72.54-2.37 1.108v5.097c0 1.473.13 1.562 1.414 1.693v.562h-4.725v-.562c1.48-.153 1.59-.26 1.59-1.693v-4.49c0-1.39-.13-1.455-1.305-1.673v-.497c1.045-.196 2.07-.455 3.027-.89v1.736c.435-.324.914-.65 1.458-1.02.608-.39 1.175-.65 1.806-.65 1.72 0 2.81 1.194 2.81 3.297v4.188c0 1.473.108 1.562 1.37 1.693v.562h-4.527zM129.022 32.29c-.523-.76-1.415-1.108-2.242-1.108-1 0-2.832.848-2.832 3.992 0 2.583 1.59 3.84 2.983 3.84.786 0 1.57-.346 2.092-.737V32.29zm3.374 7.267c-.48.087-2.11.37-3.374.823v-1.407l-1.328.78c-.85.5-1.44.627-1.697.627-1.743 0-4.03-1.582-4.03-4.62 0-3.015 2.657-5.38 5.618-5.38.306 0 .936.066 1.437.238V27.56c0-1.43-.11-1.497-1.678-1.606v-.52c1.133-.153 2.592-.478 3.397-.76v12.952c0 1.13.154 1.238.96 1.323l.696.064v.543zM143.3 33.244c1.108 0 1.826-.175 2.37-.608.85-.65 1.198-1.52 1.198-2.69 0-2.342-1.546-3.21-3.2-3.21-.63 0-1.002.086-1.175.216-.153.11-.24.37-.24.955v5.337h1.047zm8.01 7.05c-.26 0-.5 0-.76-.02-1.635-.088-2.55-.563-3.53-1.975-.762-1.064-1.545-2.41-2.198-3.472-.37-.608-.74-.87-1.872-.87h-.698v3.452c0 1.844.197 1.974 1.94 2.103v.608h-5.727v-.607c1.784-.13 1.98-.26 1.98-2.103v-8.723c0-1.844-.174-1.91-1.87-2.06v-.607h5.396c1.59 0 2.658.196 3.485.736.872.565 1.438 1.54 1.438 2.844 0 1.865-1.154 3.016-2.766 3.71.372.716 1.286 2.17 1.94 3.144.783 1.128 1.218 1.695 1.762 2.26.588.65 1.088.888 1.567 1.015l-.087.565zM156.12 31.183c-.98 0-1.94.91-2.267 2.667 1.22 0 2.42-.02 3.68-.065.392 0 .523-.127.523-.434.022-1.125-.72-2.167-1.917-2.167h-.02zm3.7 7.095c-1.37 1.713-2.873 2.103-3.548 2.103-2.68 0-4.247-2.167-4.247-4.62 0-1.496.547-2.82 1.44-3.795.89-1 2.066-1.584 3.174-1.584h.023c1.807 0 3.267 1.605 3.267 3.296 0 .436-.11.608-.503.697-.37.064-3.092.28-5.683.367.024 2.952 1.723 4.166 3.245 4.166.872 0 1.698-.35 2.48-1.083l.35.455zM169.395 38.17c-.956 1.26-2.414 2.21-3.7 2.21-2.742 0-4.354-2.21-4.354-4.534 0-1.67.72-3.123 2.177-4.25 1.135-.87 2.44-1.215 3.267-1.215h.022c.87 0 1.588.282 1.937.565.285.238.348.434.348.67 0 .457-.478.934-.716.934-.11 0-.22-.066-.414-.238-.653-.608-1.414-.89-2.178-.89-1.436 0-2.698 1.193-2.698 3.472 0 3.014 2.07 4.012 3.287 4.012.937 0 1.654-.26 2.658-1.192l.367.455zM176.338 40.12v-.562c1.262-.13 1.437-.26 1.437-1.67v-3.604c0-1.778-.676-2.667-2.134-2.667-.826 0-1.654.412-2.265 1.107v5.163c0 1.388.11 1.54 1.393 1.67v.563h-4.614l.022-.562c1.306-.11 1.48-.238 1.48-1.67v-10.35c0-1.367-.04-1.476-1.48-1.606v-.5c1.045-.15 2.353-.496 3.2-.758v7.29c.763-.78 1.94-1.583 3.115-1.583 1.762-.022 3.004 1.106 3.004 3.71v3.797c0 1.433.153 1.56 1.437 1.67v.563h-4.592zM186.437 40.1c-.37.195-.72.282-.914.282-1.373 0-2.134-.87-2.134-2.582v-6.313h-1.503l-.086-.216.587-.63h1.002v-1.583l1.414-1.432.306.044v2.97h2.46c.197.217.13.694-.133.847h-2.327v5.574c0 1.76.717 2.086 1.262 2.086.544 0 1.045-.218 1.35-.37l.196.562-1.48.763zM197.708 37.41c0 1.562.416 1.973 1.81 1.973 1.783-.02 3.373-.934 3.373-3.188 0-2.235-1.523-3.21-4.18-3.21h-1.002v4.424zm1.026-5.142c2.394 0 3.396-.956 3.396-2.778 0-1.475-.83-2.776-2.895-2.776-.545 0-1.026.085-1.242.216-.197.13-.285.37-.285 1.085v4.253h1.026zm2.458.26c2.156.325 3.855 1.28 3.855 3.45 0 1.455-.805 2.56-2.09 3.277-1.11.606-2.546.865-4.267.865h-4.81v-.606c1.87-.13 2-.26 2-2.08v-8.746c0-1.8-.085-1.93-1.826-2.06v-.607h5.594c1.63 0 2.59.26 3.267.737.783.52 1.218 1.476 1.218 2.474 0 2.062-1.72 2.908-2.94 3.232v.066zM210.836 31.183c-.98 0-1.938.91-2.266 2.667 1.22 0 2.42-.02 3.68-.065.392 0 .523-.127.523-.434.022-1.125-.72-2.167-1.915-2.167h-.022zm3.7 7.095c-1.37 1.713-2.872 2.103-3.547 2.103-2.68 0-4.248-2.167-4.248-4.62 0-1.496.547-2.82 1.44-3.795.89-1 2.066-1.584 3.176-1.584h.022c1.807 0 3.267 1.605 3.267 3.296 0 .436-.11.608-.503.697-.37.064-3.092.28-5.68.367.02 2.952 1.72 4.166 3.242 4.166.873 0 1.7-.35 2.482-1.083l.348.455zM219.216 32.68c.653-1.084 1.587-2.3 2.635-2.3.74 0 1.263.564 1.263 1.085 0 .434-.285.867-.698 1.063-.26.11-.455.088-.588-.043-.304-.327-.564-.456-.914-.456-.567 0-1.264.65-1.74 1.863v3.972c0 1.432.108 1.563 1.785 1.693v.563h-5.01v-.562c1.352-.13 1.503-.26 1.503-1.693v-4.49c0-1.433-.108-1.52-1.348-1.692v-.48c1.065-.172 2.025-.433 3.07-.89v2.366h.044zM223.675 40.12v-.562c1.37-.13 1.568-.26 1.568-1.693V27.603c0-1.475-.13-1.54-1.502-1.65v-.52c1.13-.13 2.483-.497 3.222-.76v13.192c0 1.432.175 1.562 1.568 1.693v.562h-4.855zM230.75 27.386c0-.652.522-1.13 1.11-1.13.61 0 1.09.478 1.09 1.13 0 .586-.48 1.107-1.112 1.107-.566 0-1.09-.52-1.09-1.107zm-1.155 12.735v-.562c1.373-.13 1.524-.26 1.524-1.734V33.33c0-1.322-.065-1.43-1.372-1.627v-.52c1.11-.173 2.134-.455 3.092-.847v7.488c0 1.473.15 1.604 1.544 1.734v.563h-4.79zM241.633 40.12v-.562c1.284-.13 1.437-.305 1.437-1.8v-3.624c0-1.497-.523-2.475-1.98-2.475-.872 0-1.722.54-2.374 1.108v5.097c0 1.473.13 1.562 1.415 1.693v.562h-4.725v-.562c1.48-.153 1.59-.26 1.59-1.693v-4.49c0-1.39-.13-1.455-1.306-1.673v-.497c1.045-.196 2.068-.455 3.026-.89v1.736c.435-.324.914-.65 1.458-1.02.61-.39 1.175-.65 1.807-.65 1.722 0 2.81 1.194 2.81 3.297v4.188c0 1.473.108 1.562 1.37 1.693v.562h-4.527z"/>
    <path fill="#D50C2F" d="M7.235 59.443H4.667v3.264h2.568c1.133 0 1.767-.69 1.767-1.64 0-.947-.634-1.624-1.767-1.624m-.15-4.53H4.666v3.073h2.417c1.04 0 1.75-.543 1.75-1.537 0-.995-.71-1.536-1.75-1.536m.302 9.256h-4.35V53.457H7.22c1.992 0 3.246 1.125 3.246 2.93 0 1.16-.725 1.99-1.45 2.276.832.327 1.617 1.13 1.617 2.48 0 1.972-1.345 3.027-3.247 3.027M17.227 58.693c-.242-.572-.785-.962-1.51-.962-.723 0-1.284.39-1.524.963-.153.344-.183.568-.197 1.036h3.442c-.014-.47-.06-.693-.21-1.037zm-3.23 2.103c0 1.313.695 2.14 1.947 2.14.86 0 1.313-.245 1.858-.786l.98.92c-.784.78-1.525 1.19-2.868 1.19-1.918 0-3.444-1.01-3.444-3.912 0-2.47 1.284-3.9 3.247-3.9 2.053 0 3.247 1.506 3.247 3.673v.676h-4.968zM25.213 58.33c-.348-.345-.62-.512-1.15-.512-.83 0-1.523.662-1.523 1.713v4.64H21v-7.63h1.51v.827c.392-.543 1.177-.917 2.037-.917.74 0 1.3.192 1.828.723l-1.162 1.156zM29.68 64.17c-1.464 0-2.098-.98-2.098-2.107v-8.607h1.54v8.517c0 .585.21.886.83.886h.68v1.31h-.952zM32.32 64.172h1.54V56.54h-1.54v7.632zm-.045-9.14h1.632V53.41h-1.632v1.623zM40.97 64.17v-4.65c0-1.19-.678-1.7-1.54-1.7-.86 0-1.584.526-1.584 1.7v4.65h-1.54v-7.632h1.51v.77c.528-.572 1.268-.858 2.04-.858.784 0 1.433.254 1.887.692.588.572.77 1.293.77 2.15v4.878H40.97zM51.538 64.26c-1.617 0-2.778-.376-3.805-1.417l1.087-1.068c.785.783 1.645 1.026 2.748 1.026 1.405 0 2.22-.603 2.22-1.64 0-.468-.136-.858-.424-1.113-.27-.256-.544-.365-1.176-.452l-1.27-.182c-.876-.12-1.57-.422-2.037-.856-.53-.5-.786-1.176-.786-2.05 0-1.863 1.36-3.144 3.595-3.144 1.418 0 2.414.365 3.336 1.218l-1.042 1.027c-.665-.632-1.434-.828-2.34-.828-1.27 0-1.964.722-1.964 1.67 0 .39.12.74.41.995.27.24.707.42 1.206.495l1.224.18c.995.152 1.554.392 2.007.798.59.51.876 1.28.876 2.196 0 1.972-1.615 3.145-3.865 3.145M60.43 64.26c-1.722 0-3.413-1.053-3.413-3.912 0-2.862 1.69-3.898 3.412-3.898 1.056 0 1.795.3 2.52 1.068l-1.056 1.024c-.483-.53-.86-.723-1.465-.723-.59 0-1.088.238-1.42.676-.332.422-.453.962-.453 1.852 0 .887.12 1.443.453 1.865.332.436.83.677 1.42.677.603 0 .98-.198 1.464-.725l1.057 1.01c-.725.767-1.464 1.084-2.52 1.084M69.365 64.17v-4.68c0-1.16-.68-1.67-1.54-1.67s-1.556.526-1.556 1.67v4.68h-1.54V53.456h1.54v3.852c.53-.572 1.224-.858 1.98-.858 1.704 0 2.656 1.145 2.656 2.8v4.92h-1.54zM77.23 58.256c-.288-.287-.68-.438-1.133-.438-.453 0-.83.15-1.117.438-.47.463-.528 1.265-.528 2.093 0 .827.06 1.623.528 2.086.286.287.664.454 1.117.454.453 0 .845-.167 1.133-.454.467-.463.528-1.26.528-2.087 0-.83-.06-1.63-.528-2.094m1.162 5.1c-.5.512-1.252.902-2.295.902-1.04 0-1.782-.39-2.28-.9-.725-.755-.905-1.718-.905-3.01 0-1.28.18-2.243.906-2.997.497-.51 1.238-.9 2.28-.9 1.042 0 1.795.39 2.294.9.726.755.904 1.718.904 3 0 1.29-.178 2.253-.904 3.007M85.337 58.256c-.288-.287-.68-.438-1.133-.438-.453 0-.83.15-1.117.438-.47.463-.528 1.265-.528 2.093 0 .827.058 1.623.527 2.086.286.287.664.454 1.117.454.453 0 .845-.167 1.133-.454.467-.463.528-1.26.528-2.087 0-.83-.06-1.63-.528-2.094m1.162 5.1c-.5.512-1.255.902-2.296.902-1.043 0-1.783-.39-2.28-.9-.725-.755-.905-1.718-.905-3.01 0-1.28.18-2.243.903-2.997.498-.51 1.238-.9 2.28-.9 1.042 0 1.797.39 2.296.9.724.755.905 1.718.905 3 0 1.29-.18 2.253-.906 3.007M91.54 64.17c-1.464 0-2.1-.98-2.1-2.107v-8.607h1.542v8.517c0 .585.21.886.83.886h.68v1.31h-.95zM101.76 58.256c-.288-.287-.68-.438-1.133-.438-.453 0-.83.15-1.117.438-.47.463-.528 1.265-.528 2.093 0 .827.06 1.623.528 2.086.287.287.664.454 1.117.454.453 0 .845-.167 1.133-.454.467-.463.528-1.26.528-2.087 0-.83-.06-1.63-.528-2.094m1.162 5.1c-.498.512-1.254.902-2.295.902-1.043 0-1.782-.39-2.28-.9-.724-.755-.905-1.718-.905-3.01 0-1.28.18-2.243.904-2.997.5-.51 1.238-.9 2.28-.9 1.042 0 1.798.39 2.296.9.726.755.907 1.718.907 3 0 1.29-.182 2.253-.908 3.007M107.69 57.85v6.32h-1.538v-6.32h-.878v-1.177h.878v-1.17c0-1.1.664-2.125 2.097-2.125h.967v1.31h-.68c-.572 0-.847.33-.847.888v1.097h1.527v1.177h-1.527zM114.665 64.17V53.456h6.87v1.458h-5.24v3.13h4.47v1.446h-4.47v3.218h5.24v1.462M126.607 64.26c-1.722 0-3.414-1.053-3.414-3.912 0-2.862 1.692-3.898 3.414-3.898 1.056 0 1.795.3 2.522 1.068l-1.06 1.024c-.483-.53-.86-.723-1.463-.723-.59 0-1.09.238-1.42.676-.332.422-.452.962-.452 1.852 0 .887.12 1.443.452 1.865.33.436.83.677 1.42.677.604 0 .98-.198 1.463-.725l1.06 1.01c-.728.767-1.467 1.084-2.523 1.084M134.864 58.256c-.286-.287-.678-.438-1.133-.438-.45 0-.83.15-1.114.438-.47.463-.53 1.265-.53 2.093 0 .827.06 1.623.53 2.086.285.287.664.454 1.115.454.456 0 .848-.167 1.134-.454.47-.463.53-1.26.53-2.087 0-.83-.06-1.63-.53-2.094m1.162 5.1c-.498.512-1.252.902-2.295.902-1.04 0-1.78-.39-2.278-.9-.725-.755-.904-1.718-.904-3.01 0-1.28.18-2.243.904-2.997.5-.51 1.238-.9 2.28-.9 1.042 0 1.796.39 2.294.9.728.755.907 1.718.907 3 0 1.29-.18 2.253-.907 3.007M143.68 64.17v-4.65c0-1.19-.68-1.7-1.54-1.7s-1.585.526-1.585 1.7v4.65h-1.542v-7.632h1.51v.77c.53-.572 1.27-.858 2.04-.858.786 0 1.434.254 1.89.692.587.572.766 1.293.766 2.15v4.878h-1.54zM151.544 58.256c-.288-.287-.68-.438-1.132-.438-.453 0-.83.15-1.117.438-.47.463-.53 1.265-.53 2.093 0 .827.06 1.623.53 2.086.286.287.664.454 1.117.454.453 0 .844-.167 1.132-.454.467-.463.53-1.26.53-2.087 0-.83-.063-1.63-.53-2.094m1.163 5.1c-.5.512-1.254.902-2.295.902-1.044 0-1.783-.39-2.282-.9-.723-.755-.904-1.718-.904-3.01 0-1.28.18-2.243.904-2.997.5-.51 1.238-.9 2.282-.9 1.04 0 1.796.39 2.295.9.725.755.906 1.718.906 3 0 1.29-.18 2.253-.906 3.007M165.025 64.17v-4.65c0-1.19-.68-1.7-1.54-1.7-.83 0-1.586.526-1.586 1.623v4.727h-1.54v-4.65c0-1.19-.678-1.7-1.54-1.7-.86 0-1.586.526-1.586 1.7v4.65h-1.54v-7.632h1.51v.77c.512-.557 1.268-.858 2.04-.858.95 0 1.69.375 2.173 1.113.618-.754 1.39-1.113 2.402-1.113.782 0 1.478.254 1.93.692.59.572.817 1.293.817 2.15v4.878h-1.542zM168.932 64.172h1.54V56.54h-1.54v7.632zm-.044-9.14h1.63V53.41h-1.63v1.623zM175.937 64.26c-1.723 0-3.412-1.053-3.412-3.912 0-2.862 1.69-3.898 3.412-3.898 1.057 0 1.796.3 2.522 1.068l-1.06 1.024c-.48-.53-.86-.723-1.463-.723-.59 0-1.087.238-1.42.676-.33.422-.452.962-.452 1.852 0 .887.12 1.443.453 1.865.332.436.83.677 1.42.677.603 0 .98-.198 1.463-.725l1.06 1.01c-.727.767-1.466 1.084-2.523 1.084M182.715 64.26c-1.252 0-2.31-.21-3.217-1.1l1.01-1.008c.62.633 1.452.8 2.207.8.936 0 1.675-.333 1.675-1.056 0-.51-.286-.843-1.025-.9l-1.224-.106c-1.434-.125-2.262-.77-2.262-2.11 0-1.488 1.28-2.33 2.883-2.33 1.148 0 2.13.24 2.84.858l-.967.978c-.483-.41-1.165-.556-1.888-.556-.922 0-1.39.406-1.39.974 0 .453.243.802 1.058.875l1.208.102c1.436.12 2.28.802 2.28 2.155 0 1.594-1.36 2.422-3.185 2.422M195.485 60.797h-1.797c-.906 0-1.373.406-1.373 1.1 0 .69.437 1.082 1.405 1.082.586 0 1.026-.044 1.433-.435.228-.227.332-.588.332-1.128v-.62zm.032 3.372v-.692c-.56.557-1.09.78-2.04.78s-1.585-.223-2.054-.693c-.39-.406-.602-.992-.602-1.64 0-1.28.89-2.195 2.642-2.195h2.023v-.543c0-.962-.483-1.43-1.675-1.43-.845 0-1.254.198-1.676.74l-1.013-.95c.726-.84 1.48-1.097 2.75-1.097 2.098 0 3.157.885 3.157 2.618v5.1h-1.51zM204.06 64.17v-4.65c0-1.19-.678-1.7-1.54-1.7-.86 0-1.586.526-1.586 1.7v4.65h-1.54v-7.632h1.51v.77c.528-.572 1.27-.858 2.04-.858.786 0 1.433.254 1.887.692.59.572.77 1.293.77 2.15v4.878h-1.54zM210.746 57.82c-1.39 0-1.6 1.17-1.6 2.528 0 1.354.21 2.542 1.6 2.542 1.39 0 1.586-1.188 1.586-2.542 0-1.357-.197-2.53-1.586-2.53zm1.616 6.35v-.812c-.574.693-1.192.9-2.023.9-.772 0-1.452-.255-1.875-.677-.77-.765-.858-2.076-.858-3.232 0-1.16.09-2.456.858-3.222.423-.422 1.087-.676 1.858-.676.815 0 1.45.193 2.01.858v-3.852h1.54V64.17h-1.51zM220.122 64.17V53.456h1.63v9.252h5.178v1.462M232.697 60.797H230.9c-.906 0-1.375.406-1.375 1.1 0 .69.44 1.082 1.405 1.082.588 0 1.028-.044 1.435-.435.226-.227.332-.588.332-1.128v-.62zm.03 3.372v-.692c-.56.557-1.087.78-2.04.78-.95 0-1.585-.223-2.052-.693-.392-.406-.604-.992-.604-1.64 0-1.28.89-2.195 2.642-2.195h2.025v-.543c0-.962-.483-1.43-1.677-1.43-.845 0-1.254.198-1.676.74l-1.01-.95c.724-.84 1.48-1.097 2.745-1.097 2.1 0 3.157.885 3.157 2.618v5.1h-1.51zM244.095 64.17h-1.313l-1.797-5.33-1.782 5.33h-1.33l-2.37-7.632h1.63l1.48 5.372 1.782-5.372h1.192l1.77 5.372 1.477-5.372h1.646"/>
  </g>
</svg>
